<?xml version="1.0" encoding="utf-8"?>
<!-- Generator: Adobe Illustrator 25.2.1, SVG Export Plug-In . SVG Version: 6.00 Build 0)  -->
<svg version="1.1" id="Layer_1" xmlns="http://www.w3.org/2000/svg" xmlns:xlink="http://www.w3.org/1999/xlink" x="0px" y="0px"
	 viewBox="0 0 792 792" style="enable-background:new 0 0 792 792;" xml:space="preserve">
<style type="text/css">
	.st0{fill:#111111;}
	.st1{fill:#0A3313;}
	.st2{fill:#F98816;}
	.st3{fill:#F91616;}
	.st4{fill:#82F4E9;}
	.st5{fill:#031106;}
	.st6{fill:#2F683A;}
	.st7{fill:none;stroke:#031106;stroke-width:3;stroke-miterlimit:10;}
	.st8{fill:#FF0000;}
	.st9{fill:#F72FD1;}
	.st10{fill:#541F0D;}
	.st11{fill:#000A02;}
	.st12{fill:#FFE317;}
	.st13{fill:none;stroke:#541F0D;stroke-width:3;stroke-miterlimit:10;}
	.st14{fill:none;stroke:#0A3313;stroke-width:3;stroke-miterlimit:10;}
	.st15{fill:none;stroke:#541F0D;stroke-width:2;stroke-miterlimit:10;}
	.st16{fill:#282828;}
	.st17{fill:#595959;}
	.st18{fill:#176622;}
	.st19{fill:#7FF495;}
	.st20{fill:#68361A;}
	.st21{fill:#877726;}
	.st22{fill:#514812;}
	.st23{fill:#826430;}
</style>
<g>
	<rect x="344.71" y="100.81" class="st0" width="8.02" height="34.19"/>
	<rect x="438.91" y="100.81" class="st0" width="8.02" height="34.19"/>
	<rect x="344.71" y="219.06" class="st0" width="8.02" height="34.19"/>
	<rect x="438.91" y="219.06" class="st0" width="8.02" height="34.19"/>
	<rect x="352.94" y="79.68" class="st1" width="86.11" height="183.87"/>
	<rect x="352.94" y="75.95" class="st2" width="12.58" height="3.74"/>
	<rect x="426.48" y="75.95" class="st2" width="12.58" height="3.74"/>
	<rect x="352.94" y="263.59" class="st3" width="12.58" height="3.74"/>
	<rect x="426.48" y="263.59" class="st3" width="12.58" height="3.74"/>
	<rect x="355.81" y="227" class="st4" width="79.97" height="18.31"/>
	<rect x="355.87" y="129.46" class="st4" width="79.91" height="26.91"/>
	<rect x="355.87" y="85.27" class="st5" width="79.91" height="47.93"/>
	<circle class="st1" cx="358.92" cy="100.43" r="5.51"/>
	<circle class="st1" cx="432.77" cy="100.43" r="5.51"/>
	<rect x="338.85" y="142.54" class="st1" width="15.92" height="4.86"/>
	<rect x="437.24" y="142.54" class="st1" width="15.92" height="4.86"/>
	<rect x="359.9" y="160.64" class="st5" width="71.02" height="60.72"/>
	<rect x="427.26" y="158.61" class="st6" width="6.58" height="66.15"/>
	<rect x="358.92" y="158.61" class="st6" width="6.58" height="66.15"/>
	<rect x="375.84" y="160.3" class="st6" width="1.65" height="61.4"/>
	<rect x="416.57" y="160.3" class="st6" width="1.65" height="61.4"/>
	<rect x="396.2" y="160.3" class="st6" width="1.65" height="61.4"/>
	<rect x="388.65" y="178.82" class="st6" width="16.76" height="20.43"/>
	<line class="st7" x1="388.65" y1="178.82" x2="405.41" y2="199.25"/>
	<line class="st7" x1="388.65" y1="199.25" x2="405.41" y2="178.82"/>
</g>
<g>
	<rect x="84.95" y="100.81" class="st0" width="8.02" height="34.19"/>
	<rect x="179.15" y="100.81" class="st0" width="8.02" height="34.19"/>
	<rect x="84.95" y="240.01" class="st0" width="8.02" height="34.19"/>
	<rect x="179.15" y="240.01" class="st0" width="8.02" height="34.19"/>
	<rect x="92.79" y="92.12" class="st8" width="86.11" height="188.69"/>
	<rect x="92.79" y="88.35" class="st2" width="12.58" height="3.74"/>
	<rect x="166.32" y="88.35" class="st2" width="12.58" height="3.74"/>
	<rect x="92.79" y="280.81" class="st9" width="12.58" height="3.74"/>
	<rect x="166.32" y="280.81" class="st9" width="12.58" height="3.74"/>
	<rect x="95.65" y="195.23" class="st10" width="79.97" height="81.84"/>
	<rect x="95.72" y="133.19" class="st4" width="79.91" height="23.17"/>
	<rect x="105.48" y="158.61" class="st10" width="2.5" height="34.38"/>
	<rect x="134.39" y="158.61" class="st10" width="2.5" height="34.38"/>
	<rect x="163.82" y="158.61" class="st10" width="2.5" height="34.38"/>
	<rect x="88.96" y="156.37" class="st11" width="93.05" height="3.74"/>
	<rect x="82.98" y="149.64" class="st12" width="17.56" height="6.73"/>
	<rect x="173.24" y="149.64" class="st12" width="17.56" height="6.73"/>
	<rect x="126.71" y="149.64" class="st12" width="17.56" height="6.73"/>
	<rect x="95.72" y="101.43" class="st10" width="79.91" height="31.77"/>
	<circle class="st8" cx="98.77" cy="115.7" r="5.51"/>
	<circle class="st8" cx="172.61" cy="115.7" r="5.51"/>
	<rect x="79.73" y="163.51" class="st8" width="15.92" height="4.86"/>
	<rect x="178.12" y="163.51" class="st8" width="15.92" height="4.86"/>
	<rect x="126.01" y="234.81" class="st8" width="16.76" height="20.43"/>
	<line class="st13" x1="126.01" y1="234.81" x2="142.77" y2="255.24"/>
	<line class="st13" x1="126.01" y1="255.24" x2="142.77" y2="234.81"/>
</g>
<g>
	<rect x="463.91" y="81.13" class="st6" width="79.97" height="53.47"/>
	<line class="st14" x1="534.59" y1="81.09" x2="538.66" y2="134.6"/>
	<line class="st14" x1="474.18" y1="81.09" x2="470.11" y2="134.6"/>
</g>
<g>
	<rect x="208.28" y="95.17" class="st8" width="79.97" height="41.08"/>
	<line class="st15" x1="278.95" y1="95.14" x2="283.03" y2="136.25"/>
	<line class="st15" x1="220.04" y1="95.14" x2="215.96" y2="136.25"/>
</g>
<g>
	<rect x="84.11" y="367.15" class="st16" width="8.92" height="58.12"/>
	<rect x="76.65" y="403.64" class="st16" width="24.62" height="34.19"/>
	<rect x="90.44" y="368.65" class="st17" width="0.45" height="56.62"/>
	<rect x="86.81" y="368.65" class="st17" width="0.45" height="56.62"/>
	<rect x="88.63" y="368.65" class="st17" width="0.45" height="56.62"/>
	<rect x="82.21" y="354.16" class="st16" width="12.72" height="16.89"/>
	<ellipse class="st0" cx="88.94" cy="421.55" rx="10.09" ry="10.29"/>
</g>
<g>
	<path class="st18" d="M486.54,603.27c0-21.22-16.04-38.76-36.89-41.62c-7.25-11.28-19.87-18.91-34.34-19.43
		c8.39,2.67,15.48,8.26,20.09,15.57c4.07,0.57,7.93,1.79,11.47,3.57c12.26,6.13,20.68,18.8,20.68,33.44c0,4.62-0.84,9.04-2.38,13.13
		c-1.38,3.69-3.33,7.09-5.74,10.12c0.1,0.99,0.16,1.99,0.16,3.01c0,15.62-12.66,28.27-28.27,28.27c-0.8,0-1.59-0.04-2.38-0.11
		c-2.4,2-5.09,3.67-7.99,4.94c-4.06,1.77-8.55,2.77-13.27,2.77c-11.28,0-21.25-5.64-27.24-14.24c-1.88-2.7-3.37-5.68-4.39-8.88
		c-11.47-2.13-20.79-10.37-24.46-21.22c0.42,17.25,13.19,31.49,29.98,34.55c4.89,15.08,19.28,26.01,36.29,26.01
		c9.28,0,17.78-3.26,24.38-8.66c0.9,0.07,1.81,0.12,2.73,0.12c17.91,0,32.44-14.24,32.44-31.8c0-1.14-0.06-2.27-0.19-3.39
		C483.04,622.24,486.54,613.15,486.54,603.27z"/>
	<path class="st19" d="M376.05,633.81c1.02,3.2,2.51,6.19,4.39,8.88c6,8.61,15.96,14.24,27.24,14.24c4.72,0,9.2-0.99,13.27-2.77
		c2.9-1.27,5.59-2.94,7.99-4.94c0.78,0.07,1.57,0.11,2.38,0.11c15.62,0,28.27-12.66,28.27-28.27c0-1.02-0.06-2.02-0.16-3.01
		c2.41-3.03,4.36-6.43,5.74-10.12c1.53-4.09,2.38-8.51,2.38-13.13c0-14.64-8.42-27.31-20.68-33.44c-3.54-1.77-7.4-3-11.47-3.57
		c-4.6-7.31-11.69-12.9-20.09-15.57c-3.54-1.13-7.3-1.74-11.21-1.74c-19.19,0-34.96,14.62-36.79,33.33
		c-10.33,5.32-17.41,16.08-17.41,28.5c0,3.59,0.6,7.04,1.69,10.27C355.26,623.44,364.58,631.68,376.05,633.81z"/>
</g>
<g>
	<g>
		<path class="st18" d="M158.14,607.02H35.11c0,0,5.67,17.81,27,17.24l10.98-11.1l8.62,13.62c0,0,22.99,0.57,31.03-13.62l2.91,13.62
			C115.66,626.78,142.05,625.41,158.14,607.02z"/>
		<path class="st19" d="M158.14,606.81H35.11c0,0,5.67-17.81,27-17.24l10.98,11.1l8.62-13.62c0,0,22.99-0.57,31.03,13.62l2.91-13.62
			C115.66,587.06,142.05,588.43,158.14,606.81z"/>
	</g>
	<g>
		<path class="st18" d="M158.25,606.92V483.89c0,0,17.81,5.67,17.24,27l-11.1,10.98l13.62,8.62c0,0,0.57,22.99-13.62,31.03
			l13.62,2.91C178,564.43,176.63,590.83,158.25,606.92z"/>
		<path class="st19" d="M158.04,606.92V483.89c0,0-17.81,5.67-17.24,27l11.1,10.98l-13.62,8.62c0,0-0.57,22.99,13.62,31.03
			l-13.62,2.91C138.28,564.43,139.65,590.83,158.04,606.92z"/>
	</g>
	<g>
		<path class="st18" d="M157.96,607.02h123.03c0,0-5.67,17.81-27,17.24l-10.98-11.1l-8.62,13.62c0,0-22.99,0.57-31.03-13.62
			l-2.91,13.62C200.44,626.78,174.05,625.41,157.96,607.02z"/>
		<path class="st19" d="M157.96,606.81h123.03c0,0-5.67-17.81-27-17.24l-10.98,11.1l-8.62-13.62c0,0-22.99-0.57-31.03,13.62
			l-2.91-13.62C200.44,587.06,174.05,588.43,157.96,606.81z"/>
	</g>
	<g>
		<path class="st18" d="M158.06,606.92v123.03c0,0,17.81-5.67,17.24-27l-11.1-10.98l13.62-8.62c0,0,0.57-22.99-13.62-31.03
			l13.62-2.91C177.82,649.4,176.45,623.01,158.06,606.92z"/>
		<path class="st19" d="M157.86,606.92v123.03c0,0-17.81-5.67-17.24-27l11.1-10.98l-13.62-8.62c0,0-0.57-22.99,13.62-31.03
			l-13.62-2.91C138.1,649.4,139.47,623.01,157.86,606.92z"/>
	</g>
</g>
<circle class="st20" cx="623.73" cy="546.35" r="17.12"/>
<g>
	<path class="st12" d="M126.01,350.38c-1.54,0-2.79,3.39-2.79,7.56h5.58C128.8,353.77,127.55,350.38,126.01,350.38z"/>
</g>
<g>
	<circle class="st21" cx="550.6" cy="327.84" r="13.98"/>
	<circle class="st12" cx="550.18" cy="327.03" r="12.76"/>
	<polygon class="st22" points="554.83,318.98 545.53,318.98 540.88,327.03 545.53,335.09 554.83,335.09 559.49,327.03 	"/>
	<polygon class="st21" points="554.25,321.52 546.95,321.52 543.3,327.84 546.95,334.16 554.25,334.16 557.89,327.84 	"/>
</g>
<path class="st20" d="M736.18,231.37H540.11c-6.6,0-12-5.4-12-12v-8.12c0-6.6,5.4-12,12-12h196.07c6.6,0,12,5.4,12,12v8.12
	C748.18,225.97,742.78,231.37,736.18,231.37z"/>
<g>
	<g>
		<g>
			<path class="st23" d="M530.64,208.17c27.69-2.28,54.89,5.17,82.47,5.8c14.06,0.32,28.11-0.79,42.18-0.64
				c14.28,0.15,28.56,0.8,42.83,1.3c15.91,0.56,31.83,1.12,47.74,1.68c1.29,0.05,1.29-1.95,0-2c-14.26-0.5-28.51-1.01-42.77-1.51
				c-14.19-0.5-28.38-1.11-42.57-1.39c-7.05-0.14-14.1-0.16-21.15,0.04c-7.04,0.19-14.07,0.54-21.11,0.57
				c-13.92,0.05-27.7-1.72-41.48-3.44c-15.3-1.91-30.72-3.67-46.15-2.4C529.37,206.28,529.36,208.28,530.64,208.17L530.64,208.17z"
				/>
		</g>
	</g>
	<g>
		<g>
			<path class="st23" d="M595.88,211.07c8.45,1,16.76-1.14,25.01-2.67c4.3-0.8,8.65-1.44,13.03-1.34c4.39,0.1,8.66,1.09,12.93,2.05
				c4.72,1.06,9.49,2.05,14.35,1.8c1.28-0.07,1.29-2.07,0-2c-8.7,0.44-16.89-3.17-25.5-3.77c-8.55-0.6-16.93,1.8-25.28,3.23
				c-4.81,0.82-9.68,1.28-14.54,0.7C594.6,208.92,594.61,210.92,595.88,211.07L595.88,211.07z"/>
		</g>
	</g>
	<g>
		<g>
			<path class="st23" d="M535.1,219.2c13.08-2.56,26.42-0.75,39.44,1.21c13.07,1.97,26.03,3.84,39.27,2.67
				c6.84-0.6,13.62-1.66,20.47-2.19c6.88-0.54,13.79-0.6,20.69-0.55c14.06,0.11,28.11,0.47,42.16,0.99
				c15.71,0.58,31.41,1.41,47.1,2.47c1.28,0.09,1.28-1.91,0-2c-28.07-1.89-56.19-3.03-84.32-3.4c-7.06-0.09-14.14-0.15-21.2,0.21
				c-6.81,0.35-13.55,1.26-20.32,2.01c-6.8,0.75-13.57,1.12-20.4,0.69c-6.6-0.41-13.14-1.36-19.67-2.34
				c-14.47-2.18-29.19-4.54-43.74-1.7C533.3,217.52,533.84,219.45,535.1,219.2L535.1,219.2z"/>
		</g>
	</g>
	<g>
		<g>
			<path class="st23" d="M537.35,229.26c8.62-1.55,17.53-0.6,26.21-0.17c8.84,0.45,17.67,0.9,26.51,1.34c1.29,0.07,1.28-1.94,0-2
				c-9-0.46-18.01-0.91-27.01-1.37c-8.72-0.44-17.59-1.29-26.25,0.26C535.55,227.56,536.09,229.49,537.35,229.26L537.35,229.26z"/>
		</g>
	</g>
	<g>
		<g>
			<path class="st23" d="M549.38,202.54c24.4,0.83,48.8,1.69,73.19,2.47c24.5,0.79,49,1.49,73.51,1.94
				c13.79,0.26,27.58,0.43,41.38,0.51c1.29,0.01,1.29-1.99,0-2c-24.51-0.13-49.02-0.59-73.52-1.23c-24.51-0.64-49.01-1.45-73.5-2.29
				c-13.68-0.47-27.37-0.93-41.05-1.4C548.1,200.5,548.1,202.5,549.38,202.54L549.38,202.54z"/>
		</g>
	</g>
	<g>
		<g>
			<path class="st23" d="M742.63,227.47c-18.91,0.37-37.81,0.6-56.72,0.68s-37.82,0.03-56.73-0.18
				c-10.66-0.11-21.32-0.27-31.98-0.48c-1.29-0.02-1.29,1.98,0,2c18.91,0.36,37.81,0.58,56.72,0.66s37.82,0.01,56.73-0.2
				c10.66-0.12,21.32-0.28,31.98-0.49C743.92,229.44,743.92,227.44,742.63,227.47L742.63,227.47z"/>
		</g>
	</g>
	<ellipse class="st23" cx="536.32" cy="215.05" rx="9.83" ry="16.32"/>
	<ellipse class="st20" cx="739.91" cy="215.05" rx="9.83" ry="16.32"/>
</g>
</svg>
